<?xml version="1.0" encoding="UTF-8" standalone="no"?>
<svg
   xmlns:dc="http://purl.org/dc/elements/1.1/"
   xmlns:cc="http://creativecommons.org/ns#"
   xmlns:rdf="http://www.w3.org/1999/02/22-rdf-syntax-ns#"
   xmlns:svg="http://www.w3.org/2000/svg"
   xmlns="http://www.w3.org/2000/svg"
   xmlns:sodipodi="http://sodipodi.sourceforge.net/DTD/sodipodi-0.dtd"
   xmlns:inkscape="http://www.inkscape.org/namespaces/inkscape"
   inkscape:version="1.0 (4035a4fb49, 2020-05-01)"
   sodipodi:docname="001-instagram.svg"
   xml:space="preserve"
   style="enable-background:new 0 0 512 512;"
   viewBox="0 0 512 512"
   y="0px"
   x="0px"
   id="Capa_1"
   version="1.1"><metadata
   id="metadata79"><rdf:RDF><cc:Work
       rdf:about=""><dc:format>image/svg+xml</dc:format><dc:type
         rdf:resource="http://purl.org/dc/dcmitype/StillImage" /></cc:Work></rdf:RDF></metadata><defs
   id="defs77" /><sodipodi:namedview
   inkscape:current-layer="Capa_1"
   inkscape:window-maximized="0"
   inkscape:window-y="0"
   inkscape:window-x="0"
   inkscape:cy="256"
   inkscape:cx="256"
   inkscape:zoom="1.1289062"
   showgrid="false"
   id="namedview75"
   inkscape:window-height="480"
   inkscape:window-width="748"
   inkscape:pageshadow="2"
   inkscape:pageopacity="0"
   guidetolerance="10"
   gridtolerance="10"
   objecttolerance="10"
   borderopacity="1"
   bordercolor="#666666"
   pagecolor="#ffffff" />
<g
   style="fill:#ffffff"
   id="g6">
	<g
   style="fill:#ffffff"
   id="g4">
		<path
   style="fill:#ffffff"
   id="path2"
   d="M 362,0 H 150 C 67.29,0 0,67.29 0,150 v 212 c 0,82.71 67.29,150 150,150 h 212 c 82.71,0 150,-67.29 150,-150 V 150 C 512,67.29 444.71,0 362,0 Z m 130,362 c 0,71.682 -58.318,130 -130,130 H 150 C 78.318,492 20,433.682 20,362 V 150 C 20,78.318 78.318,20 150,20 h 212 c 71.682,0 130,58.318 130,130 z" />
	</g>
</g>
<g
   style="fill:#ffffff"
   id="g12">
	<g
   style="fill:#ffffff"
   id="g10">
		<path
   style="fill:#ffffff"
   id="path8"
   d="M 362,44 H 150 C 91.551,44 44,91.551 44,150 v 212 c 0,58.449 47.551,106 106,106 h 61 c 5.523,0 10,-4.477 10,-10 0,-5.523 -4.477,-10 -10,-10 H 150 C 102.58,448 64,409.42 64,362 V 150 c 0,-47.42 38.58,-86 86,-86 h 212 c 47.42,0 86,38.58 86,86 v 212 c 0,47.42 -38.58,86 -86,86 h -60.333 c -5.523,0 -10,4.477 -10,10 0,5.523 4.477,10 10,10 H 362 c 58.449,0 106,-47.551 106,-106 V 150 C 468,91.551 420.449,44 362,44 Z" />
	</g>
</g>
<g
   style="fill:#ffffff"
   id="g18">
	<g
   style="fill:#ffffff"
   id="g16">
		<path
   style="fill:#ffffff"
   id="path14"
   d="M 263.07,450.93 C 261.21,449.07 258.63,448 256,448 c -2.63,0 -5.21,1.07 -7.07,2.93 -1.86,1.86 -2.93,4.44 -2.93,7.07 0,2.63 1.07,5.21 2.93,7.07 1.86,1.86 4.44,2.93 7.07,2.93 2.63,0 5.21,-1.07 7.07,-2.93 1.86,-1.86 2.93,-4.44 2.93,-7.07 0,-2.63 -1.07,-5.21 -2.93,-7.07 z" />
	</g>
</g>
<g
   style="fill:#ffffff"
   id="g24">
	<g
   style="fill:#ffffff"
   id="g22">
		<path
   style="fill:#ffffff"
   id="path20"
   d="m 175.83,155.71 c -3.777,-4.03 -10.104,-4.236 -14.135,-0.461 l -0.443,0.417 c -4.017,3.79 -4.201,10.119 -0.41,14.136 1.967,2.085 4.618,3.137 7.275,3.137 2.462,0 4.929,-0.904 6.861,-2.727 l 0.391,-0.367 c 4.03,-3.776 4.237,-10.105 0.461,-14.135 z" />
	</g>
</g>
<g
   style="fill:#ffffff"
   id="g30">
	<g
   style="fill:#ffffff"
   id="g28">
		<path
   style="fill:#ffffff"
   id="path26"
   d="m 256,118 c -21.964,0 -43.824,5.291 -63.217,15.301 -4.907,2.533 -6.832,8.565 -4.299,13.473 2.534,4.907 8.566,6.831 13.473,4.299 C 218.762,142.398 236.945,138 256,138 c 65.065,0 118,52.935 118,118 0,65.065 -52.935,118 -118,118 -65.065,0 -118,-52.935 -118,-118 0,-20.419 5.295,-40.537 15.313,-58.178 2.727,-4.802 1.045,-10.906 -3.758,-13.634 -4.803,-2.726 -10.906,-1.045 -13.634,3.758 C 124.197,208.592 118,232.125 118,256 c 0,76.093 61.907,138 138,138 76.093,0 138,-61.907 138,-138 0,-76.093 -61.907,-138 -138,-138 z" />
	</g>
</g>
<g
   style="fill:#ffffff"
   id="g36">
	<g
   style="fill:#ffffff"
   id="g34">
		<path
   style="fill:#ffffff"
   id="path32"
   d="m 256,166 c -49.626,0 -90,40.374 -90,90 0,49.626 40.374,90 90,90 49.626,0 90,-40.374 90,-90 0,-49.626 -40.374,-90 -90,-90 z m 0,160 c -38.598,0 -70,-31.402 -70,-70 0,-38.598 31.402,-70 70,-70 38.598,0 70,31.402 70,70 0,38.598 -31.402,70 -70,70 z" />
	</g>
</g>
<g
   style="fill:#ffffff"
   id="g42">
	<g
   style="fill:#ffffff"
   id="g40">
		<path
   style="fill:#ffffff"
   id="path38"
   d="m 387.25,86.75 c -20.953,0 -38,17.047 -38,38 0,20.953 17.047,38 38,38 20.953,0 38,-17.047 38,-38 0,-20.953 -17.047,-38 -38,-38 z m 0,56 c -9.925,0 -18,-8.075 -18,-18 0,-9.925 8.075,-18 18,-18 9.925,0 18,8.075 18,18 0,9.925 -8.075,18 -18,18 z" />
	</g>
</g>
<g
   style="fill:#ffffff"
   id="g44">
</g>
<g
   style="fill:#ffffff"
   id="g46">
</g>
<g
   style="fill:#ffffff"
   id="g48">
</g>
<g
   style="fill:#ffffff"
   id="g50">
</g>
<g
   style="fill:#ffffff"
   id="g52">
</g>
<g
   style="fill:#ffffff"
   id="g54">
</g>
<g
   style="fill:#ffffff"
   id="g56">
</g>
<g
   style="fill:#ffffff"
   id="g58">
</g>
<g
   style="fill:#ffffff"
   id="g60">
</g>
<g
   style="fill:#ffffff"
   id="g62">
</g>
<g
   style="fill:#ffffff"
   id="g64">
</g>
<g
   style="fill:#ffffff"
   id="g66">
</g>
<g
   style="fill:#ffffff"
   id="g68">
</g>
<g
   style="fill:#ffffff"
   id="g70">
</g>
<g
   style="fill:#ffffff"
   id="g72">
</g>
</svg>
