<?xml version="1.0" encoding="UTF-8" standalone="no"?>
<svg
   xmlns:dc="http://purl.org/dc/elements/1.1/"
   xmlns:cc="http://creativecommons.org/ns#"
   xmlns:rdf="http://www.w3.org/1999/02/22-rdf-syntax-ns#"
   xmlns:svg="http://www.w3.org/2000/svg"
   xmlns="http://www.w3.org/2000/svg"
   xmlns:sodipodi="http://sodipodi.sourceforge.net/DTD/sodipodi-0.dtd"
   xmlns:inkscape="http://www.inkscape.org/namespaces/inkscape"
   inkscape:version="1.0 (4035a4fb49, 2020-05-01)"
   sodipodi:docname="002-twitter.svg"
   xml:space="preserve"
   style="enable-background:new 0 0 511.999 511.999;"
   viewBox="0 0 511.999 511.999"
   y="0px"
   x="0px"
   id="Layer_1"
   version="1.1"><metadata
   id="metadata55"><rdf:RDF><cc:Work
       rdf:about=""><dc:format>image/svg+xml</dc:format><dc:type
         rdf:resource="http://purl.org/dc/dcmitype/StillImage" /></cc:Work></rdf:RDF></metadata><defs
   id="defs53" /><sodipodi:namedview
   inkscape:current-layer="Layer_1"
   inkscape:window-maximized="0"
   inkscape:window-y="0"
   inkscape:window-x="0"
   inkscape:cy="255.9995"
   inkscape:cx="255.9995"
   inkscape:zoom="1.1289085"
   showgrid="false"
   id="namedview51"
   inkscape:window-height="480"
   inkscape:window-width="748"
   inkscape:pageshadow="2"
   inkscape:pageopacity="0"
   guidetolerance="10"
   gridtolerance="10"
   objecttolerance="10"
   borderopacity="1"
   bordercolor="#666666"
   pagecolor="#ffffff" />
<g
   style="fill:#ffffff"
   id="g6">
	<g
   style="fill:#ffffff"
   id="g4">
		<path
   style="fill:#ffffff"
   id="path2"
   d="m 507.77,96.789 c -3.92,-4.669 -9.903,-6.958 -15.769,-6.358 2.345,-4.855 4.354,-9.891 6.016,-15.091 2.279,-7.127 -0.123,-15.046 -5.97,-19.699 -5.849,-4.662 -14.103,-5.232 -20.545,-1.416 -14.758,8.753 -30.599,15.287 -47.157,19.455 -21.035,-18.575 -48.714,-29.128 -76.82,-29.128 -63.816,0 -115.735,51.917 -115.735,115.731 0,0.714 0.006,1.428 0.019,2.142 C 167.008,153.632 106.858,120.053 65.315,69.093 61.55,64.475 55.761,61.994 49.848,62.476 43.922,62.94 38.597,66.283 35.6,71.42 25.342,89.023 19.92,109.147 19.92,129.619 c 0,18.054 4.218,35.74 12.145,51.67 -1.32,0.393 -2.602,0.936 -3.818,1.634 -5.477,3.138 -8.967,9.007 -9.111,15.299 -0.013,0.551 -0.014,1.102 -0.014,1.659 0,32.878 14.268,64.167 38.287,85.933 -3.841,4.722 -5.072,11.157 -3.206,16.976 9.946,31.053 32.666,56.265 61.702,69.726 -23.159,10.637 -48.524,16.184 -74.48,16.184 -7.086,0 -14.204,-0.416 -21.147,-1.238 -8.439,-1.004 -16.336,3.885 -19.202,11.89 -2.863,8 0.132,16.789 7.282,21.373 47.672,30.566 102.793,46.722 159.404,46.722 111.254,0 180.924,-52.547 219.777,-96.631 48.338,-54.836 76.06,-127.446 76.06,-199.211 0,-1.265 -0.008,-2.537 -0.024,-3.811 17.576,-13.928 32.828,-30.48 45.386,-49.265 4.459,-6.669 3.966,-15.612 -1.191,-21.74 z m -60.639,57.939 c -2.645,1.993 -4.158,5.147 -4.057,8.456 0.086,2.799 0.129,5.633 0.129,8.425 0,66.867 -25.866,134.561 -70.965,185.723 -36.075,40.928 -100.834,89.716 -204.475,89.716 -49.475,0 -97.73,-13.257 -140.171,-38.423 4.596,0.316 9.222,0.475 13.837,0.475 37.456,0 73.838,-10.387 105.213,-30.038 3.502,-2.195 5.335,-6.287 4.64,-10.361 -0.697,-4.075 -3.783,-7.326 -7.816,-8.234 -31.581,-7.104 -57.553,-30.05 -68.608,-60.322 1.701,0.258 3.412,0.473 5.115,0.644 4.75,0.466 9.202,-2.416 10.699,-6.954 1.497,-4.539 -0.358,-9.508 -4.462,-11.956 -28.06,-16.734 -45.763,-46.996 -46.651,-79.439 3.985,2.013 8.121,3.766 12.341,5.228 4.347,1.505 9.163,-0.084 11.758,-3.882 2.597,-3.797 2.33,-8.861 -0.651,-12.365 -14.629,-17.197 -22.685,-39.144 -22.685,-61.799 0,-15.768 3.9,-31.279 11.306,-45.069 47.495,56.842 116.675,93.062 190.337,99.529 3.076,0.267 6.105,-0.866 8.244,-3.091 2.139,-2.225 3.155,-5.3 2.764,-8.36 -0.519,-4.065 -0.782,-8.219 -0.782,-12.344 0,-52.566 42.768,-95.332 95.336,-95.332 24.725,0 49.052,9.914 66.741,27.198 2.46,2.403 5.965,3.408 9.323,2.665 18.548,-4.087 36.34,-10.801 52.975,-19.987 -4.049,10.366 -9.853,19.856 -17.303,28.281 -3.006,3.399 -3.405,8.376 -0.978,12.211 2.426,3.835 7.097,5.607 11.453,4.344 6.018,-1.74 11.985,-3.781 17.819,-6.092 -11.406,15.694 -24.977,29.513 -40.426,41.153 z" />
	</g>
</g>
<g
   style="fill:#ffffff"
   id="g12">
	<g
   style="fill:#ffffff"
   id="g10">
		<path
   style="fill:#ffffff"
   id="path8"
   d="m 89.95,145.834 c -2.153,-1.605 -4.298,-3.258 -6.377,-4.91 -4.409,-3.506 -10.826,-2.774 -14.331,1.636 -3.505,4.409 -2.773,10.825 1.636,14.331 2.241,1.782 4.554,3.564 6.874,5.294 1.832,1.366 3.97,2.025 6.091,2.025 3.11,0 6.182,-1.418 8.183,-4.102 3.368,-4.516 2.439,-10.905 -2.076,-14.274 z" />
	</g>
</g>
<g
   style="fill:#ffffff"
   id="g18">
	<g
   style="fill:#ffffff"
   id="g16">
		<path
   style="fill:#ffffff"
   id="path14"
   d="m 222.328,196.399 c -36.715,-3.223 -73.142,-14.6 -105.344,-32.9 -4.898,-2.783 -11.123,-1.07 -13.907,3.828 -2.783,4.898 -1.07,11.123 3.828,13.907 34.73,19.738 74.026,32.009 113.639,35.487 0.304,0.026 0.605,0.04 0.904,0.04 5.229,0 9.682,-4 10.148,-9.309 0.492,-5.612 -3.657,-10.56 -9.268,-11.053 z" />
	</g>
</g>
<g
   style="fill:#ffffff"
   id="g20">
</g>
<g
   style="fill:#ffffff"
   id="g22">
</g>
<g
   style="fill:#ffffff"
   id="g24">
</g>
<g
   style="fill:#ffffff"
   id="g26">
</g>
<g
   style="fill:#ffffff"
   id="g28">
</g>
<g
   style="fill:#ffffff"
   id="g30">
</g>
<g
   style="fill:#ffffff"
   id="g32">
</g>
<g
   style="fill:#ffffff"
   id="g34">
</g>
<g
   style="fill:#ffffff"
   id="g36">
</g>
<g
   style="fill:#ffffff"
   id="g38">
</g>
<g
   style="fill:#ffffff"
   id="g40">
</g>
<g
   style="fill:#ffffff"
   id="g42">
</g>
<g
   style="fill:#ffffff"
   id="g44">
</g>
<g
   style="fill:#ffffff"
   id="g46">
</g>
<g
   style="fill:#ffffff"
   id="g48">
</g>
</svg>
