<?xml version="1.0" encoding="UTF-8" standalone="no"?>
<svg
   xmlns:dc="http://purl.org/dc/elements/1.1/"
   xmlns:cc="http://creativecommons.org/ns#"
   xmlns:rdf="http://www.w3.org/1999/02/22-rdf-syntax-ns#"
   xmlns:svg="http://www.w3.org/2000/svg"
   xmlns="http://www.w3.org/2000/svg"
   xmlns:sodipodi="http://sodipodi.sourceforge.net/DTD/sodipodi-0.dtd"
   xmlns:inkscape="http://www.inkscape.org/namespaces/inkscape"
   inkscape:version="1.0 (4035a4fb49, 2020-05-01)"
   sodipodi:docname="004-facebook.svg"
   id="svg10"
   version="1.1"
   width="512pt"
   viewBox="0 0 512 512"
   height="512pt">
  <metadata
     id="metadata16">
    <rdf:RDF>
      <cc:Work
         rdf:about="">
        <dc:format>image/svg+xml</dc:format>
        <dc:type
           rdf:resource="http://purl.org/dc/dcmitype/StillImage" />
      </cc:Work>
    </rdf:RDF>
  </metadata>
  <defs
     id="defs14" />
  <sodipodi:namedview
     inkscape:current-layer="svg10"
     inkscape:window-maximized="0"
     inkscape:window-y="0"
     inkscape:window-x="0"
     inkscape:cy="341.33333"
     inkscape:cx="341.33333"
     inkscape:zoom="0.84667969"
     showgrid="false"
     id="namedview12"
     inkscape:window-height="480"
     inkscape:window-width="744"
     inkscape:pageshadow="2"
     inkscape:pageopacity="0"
     guidetolerance="10"
     gridtolerance="10"
     objecttolerance="10"
     borderopacity="1"
     bordercolor="#666666"
     pagecolor="#ffffff" />
  <path
     style="fill:#ffffff"
     id="path2"
     d="m426.578125 75.421875h-67.320313c-52.402343 0-95.035156 42.632813-95.035156 95.035156v56.816407h-53.273437c-5.519531 0-10 4.476562-10 10v76.9375c0 5.523437 4.480469 10 10 10h53.273437v167.789062h-234.222656c-5.515625 0-10-4.484375-10-10v-452c0-5.515625 4.484375-10 10-10h20c5.523438 0 10-4.476562 10-10s-4.476562-10-10-10h-20c-16.542969 0-30 13.457031-30 30v452c0 16.542969 13.457031 30 30 30h244.222656c5.523438 0 10-4.476562 10-10v-187.789062c0-5.523438-4.476562-10-10-10h-53.269531v-56.941407h53.269531c5.523438 0 10-4.476562 10-10v-66.8125c0-41.375 33.660156-75.039062 75.039063-75.039062h57.320312v56.9375h-57.320312c-9.8125 0-18.101563 8.289062-18.101563 18.101562v66.8125c0 5.523438 4.476563 10 10 10h64.019532l-7.492188 56.941407h-56.527344c-5.519531 0-10 4.476562-10 10v187.789062c0 5.523438 4.480469 10 10 10h30.839844c5.523438 0 10-4.476562 10-10s-4.476562-10-10-10h-20.839844v-167.789062h55.296875c5.019531 0 9.261719-3.722657 9.914063-8.695313l10.125-76.941406c.375-2.851563-.496094-5.730469-2.394532-7.894531-1.898437-2.167969-4.640624-3.40625-7.519531-3.40625h-65.417969v-54.914063h65.417969c5.523438 0 10-4.476563 10-10v-76.9375c-.003906-5.523437-4.480469-10-10.003906-10zm0 0" />
  <path
     style="fill:#ffffff"
     id="path4"
     d="m482 0h-352c-5.523438 0-10 4.476562-10 10s4.476562 10 10 10h352c5.515625 0 10 4.484375 10 10v452c0 5.515625-4.484375 10-10 10h-20c-5.523438 0-10 4.476562-10 10s4.476562 10 10 10h20c16.542969 0 30-13.457031 30-30v-452c0-16.542969-13.457031-30-30-30zm0 0" />
  <path
     style="fill:#ffffff"
     id="path6"
     d="m422.003906 492h-.007812c-5.523438 0-9.996094 4.476562-9.996094 10s4.480469 10 10.003906 10c5.523438 0 10-4.476562 10-10s-4.476562-10-10-10zm0 0" />
  <path
     style="fill:#ffffff"
     id="path8"
     d="m90.003906 20c5.523438 0 10-4.476562 10-10s-4.476562-10-10-10h-.007812c-5.523438 0-9.996094 4.476562-9.996094 10s4.480469 10 10.003906 10zm0 0" />
</svg>
