<?xml version="1.0" encoding="UTF-8" standalone="no"?>
<svg
   xmlns:dc="http://purl.org/dc/elements/1.1/"
   xmlns:cc="http://creativecommons.org/ns#"
   xmlns:rdf="http://www.w3.org/1999/02/22-rdf-syntax-ns#"
   xmlns:svg="http://www.w3.org/2000/svg"
   xmlns="http://www.w3.org/2000/svg"
   xmlns:sodipodi="http://sodipodi.sourceforge.net/DTD/sodipodi-0.dtd"
   xmlns:inkscape="http://www.inkscape.org/namespaces/inkscape"
   version="1.1"
   id="Capa_1"
   x="0px"
   y="0px"
   viewBox="0 0 512 512"
   style="enable-background:new 0 0 512 512;"
   xml:space="preserve"
   sodipodi:docname="005-behance.svg"
   inkscape:version="1.0 (4035a4fb49, 2020-05-01)"><metadata
   id="metadata79"><rdf:RDF><cc:Work
       rdf:about=""><dc:format>image/svg+xml</dc:format><dc:type
         rdf:resource="http://purl.org/dc/dcmitype/StillImage" /></cc:Work></rdf:RDF></metadata><defs
   id="defs77"><filter
     id="filter52"
     inkscape:label="Drop Shadow"
     style="color-interpolation-filters:sRGB;"><feFlood
       id="feFlood42"
       result="flood"
       flood-color="rgb(0,0,0)"
       flood-opacity="0.498039" /><feComposite
       id="feComposite44"
       result="composite1"
       operator="in"
       in2="SourceGraphic"
       in="flood" /><feGaussianBlur
       id="feGaussianBlur46"
       result="blur"
       stdDeviation="3"
       in="composite1" /><feOffset
       id="feOffset48"
       result="offset"
       dy="5"
       dx="5" /><feComposite
       id="feComposite50"
       result="composite2"
       operator="over"
       in2="offset"
       in="SourceGraphic" /></filter><filter
     id="filter64"
     inkscape:label="Drop Shadow"
     style="color-interpolation-filters:sRGB;"><feFlood
       id="feFlood54"
       result="flood"
       flood-color="rgb(0,0,0)"
       flood-opacity="0.498039" /><feComposite
       id="feComposite56"
       result="composite1"
       operator="in"
       in2="SourceGraphic"
       in="flood" /><feGaussianBlur
       id="feGaussianBlur58"
       result="blur"
       stdDeviation="3"
       in="composite1" /><feOffset
       id="feOffset60"
       result="offset"
       dy="5"
       dx="5" /><feComposite
       id="feComposite62"
       result="composite2"
       operator="over"
       in2="offset"
       in="SourceGraphic" /></filter><filter
     id="filter76"
     inkscape:label="Drop Shadow"
     style="color-interpolation-filters:sRGB;"><feFlood
       id="feFlood66"
       result="flood"
       flood-color="rgb(0,0,0)"
       flood-opacity="0.498039" /><feComposite
       id="feComposite68"
       result="composite1"
       operator="in"
       in2="SourceGraphic"
       in="flood" /><feGaussianBlur
       id="feGaussianBlur70"
       result="blur"
       stdDeviation="3"
       in="composite1" /><feOffset
       id="feOffset72"
       result="offset"
       dy="5"
       dx="5" /><feComposite
       id="feComposite74"
       result="composite2"
       operator="over"
       in2="offset"
       in="SourceGraphic" /></filter><filter
     id="filter88"
     inkscape:label="Drop Shadow"
     style="color-interpolation-filters:sRGB;"><feFlood
       id="feFlood78"
       result="flood"
       flood-color="rgb(0,0,0)"
       flood-opacity="0.498039" /><feComposite
       id="feComposite80"
       result="composite1"
       operator="in"
       in2="SourceGraphic"
       in="flood" /><feGaussianBlur
       id="feGaussianBlur82"
       result="blur"
       stdDeviation="3"
       in="composite1" /><feOffset
       id="feOffset84"
       result="offset"
       dy="5"
       dx="5" /><feComposite
       id="feComposite86"
       result="composite2"
       operator="over"
       in2="offset"
       in="SourceGraphic" /></filter><filter
     id="filter100"
     inkscape:label="Drop Shadow"
     style="color-interpolation-filters:sRGB;"><feFlood
       id="feFlood90"
       result="flood"
       flood-color="rgb(0,0,0)"
       flood-opacity="0.498039" /><feComposite
       id="feComposite92"
       result="composite1"
       operator="in"
       in2="SourceGraphic"
       in="flood" /><feGaussianBlur
       id="feGaussianBlur94"
       result="blur"
       stdDeviation="3"
       in="composite1" /><feOffset
       id="feOffset96"
       result="offset"
       dy="5"
       dx="5" /><feComposite
       id="feComposite98"
       result="composite2"
       operator="over"
       in2="offset"
       in="SourceGraphic" /></filter><filter
     id="filter112"
     inkscape:label="Drop Shadow"
     style="color-interpolation-filters:sRGB;"><feFlood
       id="feFlood102"
       result="flood"
       flood-color="rgb(0,0,0)"
       flood-opacity="0.498039" /><feComposite
       id="feComposite104"
       result="composite1"
       operator="in"
       in2="SourceGraphic"
       in="flood" /><feGaussianBlur
       id="feGaussianBlur106"
       result="blur"
       stdDeviation="3"
       in="composite1" /><feOffset
       id="feOffset108"
       result="offset"
       dy="5"
       dx="5" /><feComposite
       id="feComposite110"
       result="composite2"
       operator="over"
       in2="offset"
       in="SourceGraphic" /></filter><filter
     id="filter124"
     inkscape:label="Drop Shadow"
     style="color-interpolation-filters:sRGB;"><feFlood
       id="feFlood114"
       result="flood"
       flood-color="rgb(0,0,0)"
       flood-opacity="0.498039" /><feComposite
       id="feComposite116"
       result="composite1"
       operator="in"
       in2="SourceGraphic"
       in="flood" /><feGaussianBlur
       id="feGaussianBlur118"
       result="blur"
       stdDeviation="3"
       in="composite1" /><feOffset
       id="feOffset120"
       result="offset"
       dy="5"
       dx="5" /><feComposite
       id="feComposite122"
       result="composite2"
       operator="over"
       in2="offset"
       in="SourceGraphic" /></filter><filter
     id="filter136"
     inkscape:label="Drop Shadow"
     style="color-interpolation-filters:sRGB;"><feFlood
       id="feFlood126"
       result="flood"
       flood-color="rgb(0,0,0)"
       flood-opacity="0.498039" /><feComposite
       id="feComposite128"
       result="composite1"
       operator="in"
       in2="SourceGraphic"
       in="flood" /><feGaussianBlur
       id="feGaussianBlur130"
       result="blur"
       stdDeviation="3"
       in="composite1" /><feOffset
       id="feOffset132"
       result="offset"
       dy="5"
       dx="5" /><feComposite
       id="feComposite134"
       result="composite2"
       operator="over"
       in2="offset"
       in="SourceGraphic" /></filter><filter
     id="filter148"
     inkscape:label="Drop Shadow"
     style="color-interpolation-filters:sRGB;"><feFlood
       id="feFlood138"
       result="flood"
       flood-color="rgb(0,0,0)"
       flood-opacity="0.498039" /><feComposite
       id="feComposite140"
       result="composite1"
       operator="in"
       in2="SourceGraphic"
       in="flood" /><feGaussianBlur
       id="feGaussianBlur142"
       result="blur"
       stdDeviation="3"
       in="composite1" /><feOffset
       id="feOffset144"
       result="offset"
       dy="5"
       dx="5" /><feComposite
       id="feComposite146"
       result="composite2"
       operator="over"
       in2="offset"
       in="SourceGraphic" /></filter><filter
     id="filter160"
     inkscape:label="Drop Shadow"
     style="color-interpolation-filters:sRGB;"><feFlood
       id="feFlood150"
       result="flood"
       flood-color="rgb(0,0,0)"
       flood-opacity="0.498039" /><feComposite
       id="feComposite152"
       result="composite1"
       operator="in"
       in2="SourceGraphic"
       in="flood" /><feGaussianBlur
       id="feGaussianBlur154"
       result="blur"
       stdDeviation="3"
       in="composite1" /><feOffset
       id="feOffset156"
       result="offset"
       dy="5"
       dx="5" /><feComposite
       id="feComposite158"
       result="composite2"
       operator="over"
       in2="offset"
       in="SourceGraphic" /></filter><filter
     id="filter172"
     inkscape:label="Drop Shadow"
     style="color-interpolation-filters:sRGB;"><feFlood
       id="feFlood162"
       result="flood"
       flood-color="rgb(0,0,0)"
       flood-opacity="0.498039" /><feComposite
       id="feComposite164"
       result="composite1"
       operator="in"
       in2="SourceGraphic"
       in="flood" /><feGaussianBlur
       id="feGaussianBlur166"
       result="blur"
       stdDeviation="3"
       in="composite1" /><feOffset
       id="feOffset168"
       result="offset"
       dy="5"
       dx="5" /><feComposite
       id="feComposite170"
       result="composite2"
       operator="over"
       in2="offset"
       in="SourceGraphic" /></filter><filter
     id="filter184"
     inkscape:label="Drop Shadow"
     style="color-interpolation-filters:sRGB;"><feFlood
       id="feFlood174"
       result="flood"
       flood-color="rgb(0,0,0)"
       flood-opacity="0.498039" /><feComposite
       id="feComposite176"
       result="composite1"
       operator="in"
       in2="SourceGraphic"
       in="flood" /><feGaussianBlur
       id="feGaussianBlur178"
       result="blur"
       stdDeviation="3"
       in="composite1" /><feOffset
       id="feOffset180"
       result="offset"
       dy="5"
       dx="5" /><feComposite
       id="feComposite182"
       result="composite2"
       operator="over"
       in2="offset"
       in="SourceGraphic" /></filter><filter
     id="filter196"
     inkscape:label="Drop Shadow"
     style="color-interpolation-filters:sRGB;"><feFlood
       id="feFlood186"
       result="flood"
       flood-color="rgb(0,0,0)"
       flood-opacity="0.498039" /><feComposite
       id="feComposite188"
       result="composite1"
       operator="in"
       in2="SourceGraphic"
       in="flood" /><feGaussianBlur
       id="feGaussianBlur190"
       result="blur"
       stdDeviation="3"
       in="composite1" /><feOffset
       id="feOffset192"
       result="offset"
       dy="5"
       dx="5" /><feComposite
       id="feComposite194"
       result="composite2"
       operator="over"
       in2="offset"
       in="SourceGraphic" /></filter><filter
     id="filter208"
     inkscape:label="Drop Shadow"
     style="color-interpolation-filters:sRGB;"><feFlood
       id="feFlood198"
       result="flood"
       flood-color="rgb(0,0,0)"
       flood-opacity="0.498039" /><feComposite
       id="feComposite200"
       result="composite1"
       operator="in"
       in2="SourceGraphic"
       in="flood" /><feGaussianBlur
       id="feGaussianBlur202"
       result="blur"
       stdDeviation="3"
       in="composite1" /><feOffset
       id="feOffset204"
       result="offset"
       dy="5"
       dx="5" /><feComposite
       id="feComposite206"
       result="composite2"
       operator="over"
       in2="offset"
       in="SourceGraphic" /></filter><filter
     id="filter220"
     inkscape:label="Drop Shadow"
     style="color-interpolation-filters:sRGB;"><feFlood
       id="feFlood210"
       result="flood"
       flood-color="rgb(0,0,0)"
       flood-opacity="0.498039" /><feComposite
       id="feComposite212"
       result="composite1"
       operator="in"
       in2="SourceGraphic"
       in="flood" /><feGaussianBlur
       id="feGaussianBlur214"
       result="blur"
       stdDeviation="3"
       in="composite1" /><feOffset
       id="feOffset216"
       result="offset"
       dy="5"
       dx="5" /><feComposite
       id="feComposite218"
       result="composite2"
       operator="over"
       in2="offset"
       in="SourceGraphic" /></filter><filter
     id="filter232"
     inkscape:label="Drop Shadow"
     style="color-interpolation-filters:sRGB;"><feFlood
       id="feFlood222"
       result="flood"
       flood-color="rgb(0,0,0)"
       flood-opacity="0.498039" /><feComposite
       id="feComposite224"
       result="composite1"
       operator="in"
       in2="SourceGraphic"
       in="flood" /><feGaussianBlur
       id="feGaussianBlur226"
       result="blur"
       stdDeviation="3"
       in="composite1" /><feOffset
       id="feOffset228"
       result="offset"
       dy="5"
       dx="5" /><feComposite
       id="feComposite230"
       result="composite2"
       operator="over"
       in2="offset"
       in="SourceGraphic" /></filter><filter
     id="filter244"
     inkscape:label="Drop Shadow"
     style="color-interpolation-filters:sRGB;"><feFlood
       id="feFlood234"
       result="flood"
       flood-color="rgb(0,0,0)"
       flood-opacity="0.498039" /><feComposite
       id="feComposite236"
       result="composite1"
       operator="in"
       in2="SourceGraphic"
       in="flood" /><feGaussianBlur
       id="feGaussianBlur238"
       result="blur"
       stdDeviation="3"
       in="composite1" /><feOffset
       id="feOffset240"
       result="offset"
       dy="5"
       dx="5" /><feComposite
       id="feComposite242"
       result="composite2"
       operator="over"
       in2="offset"
       in="SourceGraphic" /></filter><filter
     id="filter256"
     inkscape:label="Drop Shadow"
     style="color-interpolation-filters:sRGB;"><feFlood
       id="feFlood246"
       result="flood"
       flood-color="rgb(0,0,0)"
       flood-opacity="0.498039" /><feComposite
       id="feComposite248"
       result="composite1"
       operator="in"
       in2="SourceGraphic"
       in="flood" /><feGaussianBlur
       id="feGaussianBlur250"
       result="blur"
       stdDeviation="3"
       in="composite1" /><feOffset
       id="feOffset252"
       result="offset"
       dy="5"
       dx="5" /><feComposite
       id="feComposite254"
       result="composite2"
       operator="over"
       in2="offset"
       in="SourceGraphic" /></filter><filter
     id="filter268"
     inkscape:label="Drop Shadow"
     style="color-interpolation-filters:sRGB;"><feFlood
       id="feFlood258"
       result="flood"
       flood-color="rgb(0,0,0)"
       flood-opacity="0.498039" /><feComposite
       id="feComposite260"
       result="composite1"
       operator="in"
       in2="SourceGraphic"
       in="flood" /><feGaussianBlur
       id="feGaussianBlur262"
       result="blur"
       stdDeviation="3"
       in="composite1" /><feOffset
       id="feOffset264"
       result="offset"
       dy="5"
       dx="5" /><feComposite
       id="feComposite266"
       result="composite2"
       operator="over"
       in2="offset"
       in="SourceGraphic" /></filter><filter
     id="filter280"
     inkscape:label="Drop Shadow"
     style="color-interpolation-filters:sRGB;"><feFlood
       id="feFlood270"
       result="flood"
       flood-color="rgb(0,0,0)"
       flood-opacity="0.498039" /><feComposite
       id="feComposite272"
       result="composite1"
       operator="in"
       in2="SourceGraphic"
       in="flood" /><feGaussianBlur
       id="feGaussianBlur274"
       result="blur"
       stdDeviation="3"
       in="composite1" /><feOffset
       id="feOffset276"
       result="offset"
       dy="5"
       dx="5" /><feComposite
       id="feComposite278"
       result="composite2"
       operator="over"
       in2="offset"
       in="SourceGraphic" /></filter></defs><sodipodi:namedview
   inkscape:document-rotation="0"
   pagecolor="#ffffff"
   bordercolor="#666666"
   borderopacity="1"
   objecttolerance="10"
   gridtolerance="10"
   guidetolerance="10"
   inkscape:pageopacity="0"
   inkscape:pageshadow="2"
   inkscape:window-width="1366"
   inkscape:window-height="745"
   id="namedview75"
   showgrid="false"
   inkscape:zoom="1.1289062"
   inkscape:cx="256"
   inkscape:cy="256"
   inkscape:window-x="-8"
   inkscape:window-y="-8"
   inkscape:window-maximized="1"
   inkscape:current-layer="Capa_1" />
<g
   id="g12"
   style="fill:#ffffff;filter:url(#filter280)">
	<g
   id="g10"
   style="fill:#ffffff">
		<g
   id="g8"
   style="fill:#ffffff">
			<path
   d="m 74.721,234.779 h 63.717 c 27.246,0 45.551,-16.84 45.552,-41.904 0,-24.673 -18.732,-41.904 -45.551,-41.904 H 74.721 c -5.522,0 -10,4.477 -10,10 v 63.808 c 0,5.523 4.478,10 10,10 z m 10,-63.808 h 53.718 c 15.761,0 25.551,8.393 25.551,21.904 0,19.77 -17.868,21.904 -25.551,21.904 H 84.721 Z"
   id="path2"
   style="fill:#ffffff" />
			<path
   d="M 141.173,271.751 H 74.721 c -5.522,0 -10,4.477 -10,10 v 69.278 c 0,5.523 4.478,10 10,10 h 66.452 c 14.377,0 26.504,-4.025 35.072,-11.641 8.941,-7.949 13.668,-19.359 13.668,-32.998 0,-26.283 -20.043,-44.639 -48.74,-44.639 z m 0,69.278 H 84.721 v -49.278 h 56.452 c 17.727,0 28.74,9.441 28.74,24.639 0,20.364 -15.629,24.639 -28.74,24.639 z"
   id="path4"
   style="fill:#ffffff" />
			<path
   d="m 214.918,250.549 c 6.598,-4.323 12.539,-9.718 17.545,-16.013 11.522,-14.489 17.613,-32.835 17.613,-53.055 0,-23.621 -8.901,-45.322 -25.062,-61.106 C 207.347,103.12 182.296,94 152.567,94 H 10 C 4.478,94 0,98.477 0,104 v 304 c 0,5.523 4.478,10 10,10 h 147.58 c 30.32,0 55.623,-9.311 73.172,-26.927 C 247.27,374.492 256,351.819 256,325.506 256,293.545 239.496,265.02 214.918,250.549 Z M 157.58,398 H 20 V 114 h 132.568 c 53.542,0 77.509,33.892 77.509,67.481 0,35.071 -22.318,55.375 -44.436,59.939 -4.743,0.978 -8.102,5.213 -7.977,10.053 0.126,4.84 3.701,8.895 8.486,9.626 28.419,4.342 49.85,32.03 49.85,64.406 C 236,370.222 205.951,398 157.58,398 Z"
   id="path6"
   style="fill:#ffffff" />
		</g>
	</g>
</g>
<g
   id="g18"
   style="fill:#ffffff;filter:url(#filter268)">
	<g
   id="g16"
   style="fill:#ffffff">
		<path
   d="m 453.854,102 h -122 c -5.522,0 -10,4.477 -10,10 v 32 c 0,5.523 4.478,10 10,10 h 122 c 5.522,0 10,-4.477 10,-10 v -32 c 0,-5.523 -4.478,-10 -10,-10 z m -10,32 h -102 v -12 h 102 z"
   id="path14"
   style="fill:#ffffff" />
	</g>
</g>
<g
   id="g30"
   style="fill:#ffffff;filter:url(#filter256)">
	<g
   id="g28"
   style="fill:#ffffff">
		<g
   id="g26"
   style="fill:#ffffff">
			<path
   d="m 293.707,293.469 v -0.17 c 0,-5.523 -4.478,-10 -10,-10 -5.522,0 -10,4.477 -10,10 v 0.17 c 0,5.523 4.478,10 10,10 5.522,0 10,-4.477 10,-10 z"
   id="path20"
   style="fill:#ffffff" />
			<path
   d="m 480.491,201.294 c -21.975,-23.923 -52.135,-36.053 -89.644,-36.053 -33.609,0 -61.859,11.572 -83.963,34.393 -14.039,14.498 -23.741,32.681 -28.837,54.045 -1.282,5.372 2.034,10.765 7.406,12.047 5.376,1.281 10.767,-2.034 12.048,-7.407 4.252,-17.825 12.243,-32.889 23.749,-44.772 18.45,-19.047 41.214,-28.306 69.597,-28.306 32.125,0 56.63,9.676 74.914,29.581 16.764,18.256 25.562,46.413 26.202,83.783 H 347.067 c -2.695,0 -5.277,1.089 -7.159,3.019 -1.882,1.93 -2.905,4.538 -2.838,7.233 0.503,20.01 6.499,36.005 17.818,47.537 11.436,11.659 25.829,17.571 42.778,17.571 11.875,0 22.131,-3.229 30.484,-9.597 3.45,-2.631 6.558,-5.902 9.284,-9.762 h 44.375 c -6.675,11.646 -15.481,21.121 -26.175,28.163 -15.345,10.107 -35.071,15.232 -58.629,15.232 -37.699,0 -64.613,-11.141 -82.236,-34.004 -7.464,-9.824 -13.009,-21.229 -16.48,-33.896 -1.46,-5.327 -6.964,-8.461 -12.287,-7.002 -5.327,1.459 -8.462,6.961 -7.002,12.287 4.151,15.144 10.826,28.841 19.887,40.765 21.405,27.769 54.417,41.849 98.119,41.849 27.536,0 50.963,-6.234 69.63,-18.531 13.37,-8.805 24.336,-20.592 32.591,-35.034 2.89,-5.054 5.448,-10.553 7.603,-16.343 1.143,-3.069 0.709,-6.504 -1.16,-9.194 -1.868,-2.69 -4.937,-4.294 -8.212,-4.294 h -65.551 c -3.643,0 -6.998,1.981 -8.757,5.171 -2.054,3.725 -4.452,6.648 -7.127,8.688 -4.854,3.702 -10.859,5.501 -18.356,5.501 -11.537,0 -20.86,-3.786 -28.503,-11.578 -5.878,-5.989 -9.576,-13.824 -11.188,-23.781 h 143.97 c 5.447,0 9.892,-4.359 9.998,-9.805 0.929,-47.598 -9.653,-83.768 -31.453,-107.506 z"
   id="path22"
   style="fill:#ffffff" />
			<path
   d="m 348.166,282.539 h 92.399 c 2.698,0 5.28,-1.089 7.163,-3.021 1.882,-1.931 2.904,-4.541 2.835,-7.237 -0.507,-19.602 -6.144,-34.971 -16.755,-45.68 -10.707,-10.799 -23.903,-16.275 -39.222,-16.275 -16.299,0 -30.001,5.787 -40.728,17.202 v 0.001 c -10.584,11.266 -15.863,26.44 -15.692,45.102 0.051,5.487 4.513,9.908 10,9.908 z m 20.267,-41.316 c 6.89,-7.333 15.445,-10.897 26.152,-10.897 9.926,0 18.111,3.388 25.017,10.354 5.148,5.195 8.51,12.524 10.04,21.859 h -70.861 c 1.261,-8.753 4.452,-15.779 9.652,-21.316 z"
   id="path24"
   style="fill:#ffffff" />
		</g>
	</g>
</g>
<g
   id="g36"
   style="fill:#ffffff;filter:url(#filter244)">
	<g
   id="g34"
   style="fill:#ffffff">
		<path
   d="m 42,239 c -5.522,0 -10,4.477 -10,10 v 81.5 c 0,5.523 4.478,10 10,10 5.522,0 10,-4.477 10,-10 V 249 c 0,-5.523 -4.478,-10 -10,-10 z"
   id="path32"
   style="fill:#ffffff" />
	</g>
</g>
<g
   id="g42"
   style="fill:#ffffff;filter:url(#filter232)">
	<g
   id="g40"
   style="fill:#ffffff">
		<path
   d="m 42,193.5 c -5.522,0 -10,4.477 -10,10 v 0.118 c 0,5.523 4.478,10 10,10 5.522,0 10,-4.477 10,-10 V 203.5 c 0,-5.523 -4.478,-10 -10,-10 z"
   id="path38"
   style="fill:#ffffff" />
	</g>
</g>
<g
   id="g44"
   style="fill:#ffffff;filter:url(#filter220)">
</g>
<g
   id="g46"
   style="fill:#ffffff;filter:url(#filter208)">
</g>
<g
   id="g48"
   style="fill:#ffffff;filter:url(#filter196)">
</g>
<g
   id="g50"
   style="fill:#ffffff;filter:url(#filter184)">
</g>
<g
   id="g52"
   style="fill:#ffffff;filter:url(#filter172)">
</g>
<g
   id="g54"
   style="fill:#ffffff;filter:url(#filter160)">
</g>
<g
   id="g56"
   style="fill:#ffffff;filter:url(#filter148)">
</g>
<g
   id="g58"
   style="fill:#ffffff;filter:url(#filter136)">
</g>
<g
   id="g60"
   style="fill:#ffffff;filter:url(#filter124)">
</g>
<g
   id="g62"
   style="fill:#ffffff;filter:url(#filter112)">
</g>
<g
   id="g64"
   style="fill:#ffffff;filter:url(#filter100)">
</g>
<g
   id="g66"
   style="fill:#ffffff;filter:url(#filter88)">
</g>
<g
   id="g68"
   style="fill:#ffffff;filter:url(#filter76)">
</g>
<g
   id="g70"
   style="fill:#ffffff;filter:url(#filter64)">
</g>
<g
   id="g72"
   style="fill:#ffffff;filter:url(#filter52)">
</g>
</svg>
