<?xml version="1.0" encoding="UTF-8" standalone="no"?>
<svg
   xmlns:dc="http://purl.org/dc/elements/1.1/"
   xmlns:cc="http://creativecommons.org/ns#"
   xmlns:rdf="http://www.w3.org/1999/02/22-rdf-syntax-ns#"
   xmlns:svg="http://www.w3.org/2000/svg"
   xmlns="http://www.w3.org/2000/svg"
   xmlns:sodipodi="http://sodipodi.sourceforge.net/DTD/sodipodi-0.dtd"
   xmlns:inkscape="http://www.inkscape.org/namespaces/inkscape"
   inkscape:version="1.0 (4035a4fb49, 2020-05-01)"
   sodipodi:docname="007-email-naranja.svg"
   xml:space="preserve"
   style="enable-background:new 0 0 512 512;"
   viewBox="0 0 512 512"
   y="0px"
   x="0px"
   id="Capa_1"
   version="1.1"><metadata
   id="metadata55"><rdf:RDF><cc:Work
       rdf:about=""><dc:format>image/svg+xml</dc:format><dc:type
         rdf:resource="http://purl.org/dc/dcmitype/StillImage" /><dc:title></dc:title></cc:Work></rdf:RDF></metadata><defs
   id="defs53" /><sodipodi:namedview
   inkscape:current-layer="Capa_1"
   inkscape:window-maximized="0"
   inkscape:window-y="0"
   inkscape:window-x="0"
   inkscape:cy="256"
   inkscape:cx="85.480969"
   inkscape:zoom="1.1289062"
   showgrid="false"
   id="namedview51"
   inkscape:window-height="480"
   inkscape:window-width="1350"
   inkscape:pageshadow="2"
   inkscape:pageopacity="0"
   guidetolerance="10"
   gridtolerance="10"
   objecttolerance="10"
   borderopacity="1"
   bordercolor="#666666"
   pagecolor="#ffffff" />
<g
   style="fill:#ff3b00;fill-opacity:1"
   id="g6">
	<g
   style="fill:#ff3b00;fill-opacity:1"
   id="g4">
		<path
   style="fill:#ff3b00;fill-opacity:1"
   id="path2"
   d="m 137.489,82.979 h -0.125 c -5.523,0 -10,4.477 -10,10 0,5.523 4.477,10 10,10 h 0.125 c 5.523,0 10,-4.477 10,-10 0,-5.523 -4.477,-10 -10,-10 z" />
	</g>
</g>
<g
   style="fill:#ff3b00;fill-opacity:1"
   id="g12">
	<g
   style="fill:#ff3b00;fill-opacity:1"
   id="g10">
		<path
   style="fill:#ff3b00;fill-opacity:1"
   id="path8"
   d="M 472,82.979 H 182.068 c -5.523,0 -10,4.477 -10,10 0,5.523 4.477,10 10,10 H 472 c 0.518,0 1.027,0.039 1.535,0.078 L 445.592,131 H 315.15 c -5.523,0 -10,4.477 -10,10 0,5.523 4.477,10 10,10 H 425.592 L 286.203,290.389 c -16.654,16.654 -43.752,16.655 -60.406,0 L 38.465,103.057 c 0.508,-0.039 1.017,-0.078 1.535,-0.078 h 53 c 5.523,0 10,-4.477 10,-10 0,-5.523 -4.477,-10 -10,-10 H 40 c -22.056,0 -40,17.944 -40,40 v 266.042 c 0,22.056 17.944,40 40,40 h 432 c 22.056,0 40,-17.944 40,-40 V 122.979 c 0,-22.056 -17.944,-40 -40,-40 z M 20,389.021 V 122.979 c 0,-2.957 0.662,-5.756 1.819,-8.284 L 161.001,253.877 20.699,394.179 C 20.258,392.53 20,390.807 20,389.021 Z m 452,20 H 40 c -1.786,0 -3.509,-0.258 -5.158,-0.699 l 140.302,-140.302 36.512,36.512 c 12.225,12.225 28.284,18.338 44.344,18.338 16.06,0 32.119,-6.113 44.345,-18.338 l 36.511,-36.512 140.302,140.302 c -1.649,0.441 -3.372,0.699 -5.158,0.699 z m 20,-20 c 0,1.786 -0.258,3.509 -0.699,5.158 L 350.999,253.878 490.181,114.695 c 1.157,2.528 1.819,5.327 1.819,8.284 z" />
	</g>
</g>
<g
   style="fill:#ff3b00;fill-opacity:1"
   id="g18">
	<g
   style="fill:#ff3b00;fill-opacity:1"
   id="g16">
		<path
   style="fill:#ff3b00;fill-opacity:1"
   id="path14"
   d="m 273.3,131 h -0.15 c -5.523,0 -10,4.477 -10,10 0,5.523 4.477,10 10,10 h 0.15 c 5.523,0 10,-4.477 10,-10 0,-5.523 -4.477,-10 -10,-10 z" />
	</g>
</g>
<g
   style="fill:#ff3b00;fill-opacity:1"
   id="g20">
</g>
<g
   style="fill:#ff3b00;fill-opacity:1"
   id="g22">
</g>
<g
   style="fill:#ff3b00;fill-opacity:1"
   id="g24">
</g>
<g
   style="fill:#ff3b00;fill-opacity:1"
   id="g26">
</g>
<g
   style="fill:#ff3b00;fill-opacity:1"
   id="g28">
</g>
<g
   style="fill:#ff3b00;fill-opacity:1"
   id="g30">
</g>
<g
   style="fill:#ff3b00;fill-opacity:1"
   id="g32">
</g>
<g
   style="fill:#ff3b00;fill-opacity:1"
   id="g34">
</g>
<g
   style="fill:#ff3b00;fill-opacity:1"
   id="g36">
</g>
<g
   style="fill:#ff3b00;fill-opacity:1"
   id="g38">
</g>
<g
   style="fill:#ff3b00;fill-opacity:1"
   id="g40">
</g>
<g
   style="fill:#ff3b00;fill-opacity:1"
   id="g42">
</g>
<g
   style="fill:#ff3b00;fill-opacity:1"
   id="g44">
</g>
<g
   style="fill:#ff3b00;fill-opacity:1"
   id="g46">
</g>
<g
   style="fill:#ff3b00;fill-opacity:1"
   id="g48">
</g>
</svg>
