<?xml version="1.0" encoding="UTF-8" standalone="no"?>
<svg
   xmlns:dc="http://purl.org/dc/elements/1.1/"
   xmlns:cc="http://creativecommons.org/ns#"
   xmlns:rdf="http://www.w3.org/1999/02/22-rdf-syntax-ns#"
   xmlns:svg="http://www.w3.org/2000/svg"
   xmlns="http://www.w3.org/2000/svg"
   xmlns:sodipodi="http://sodipodi.sourceforge.net/DTD/sodipodi-0.dtd"
   xmlns:inkscape="http://www.inkscape.org/namespaces/inkscape"
   inkscape:version="1.0 (4035a4fb49, 2020-05-01)"
   sodipodi:docname="republicista-hlogo.svg"
   id="svg17"
   viewBox="0 0 200 62.49"
   style="shape-rendering:geometricPrecision; text-rendering:geometricPrecision; image-rendering:optimizeQuality; fill-rule:evenodd; clip-rule:evenodd"
   version="1.1"
   height="62px"
   width="200px"
   xml:space="preserve"><metadata
   id="metadata21"><rdf:RDF><cc:Work
       rdf:about=""><dc:format>image/svg+xml</dc:format><dc:type
         rdf:resource="http://purl.org/dc/dcmitype/StillImage" /></cc:Work></rdf:RDF></metadata><sodipodi:namedview
   inkscape:current-layer="svg17"
   inkscape:window-maximized="1"
   inkscape:window-y="-8"
   inkscape:window-x="-8"
   inkscape:cy="31"
   inkscape:cx="70.293283"
   inkscape:zoom="5.285"
   showgrid="false"
   id="namedview19"
   inkscape:window-height="745"
   inkscape:window-width="1366"
   inkscape:pageshadow="2"
   inkscape:pageopacity="0"
   guidetolerance="10"
   gridtolerance="10"
   objecttolerance="10"
   borderopacity="1"
   bordercolor="#666666"
   pagecolor="#ffffff" />
 <defs
   id="defs4">
  <style
   id="style2"
   type="text/css">
   <![CDATA[
    .fil1 {fill:#20228C}
    .fil0 {fill:#FF3B00}
    .fil2 {fill:#20228C;fill-rule:nonzero}
    .fil3 {fill:#FF3B00;fill-rule:nonzero}
   ]]>
  </style>
 </defs>
 <g
   transform="matrix(1.0079032,0,0,1,-0.8327031,0)"
   id="Layer_x0020_1">
  <metadata
   id="CorelCorpID_0Corel-Layer" />
  <g
   id="_2167985774880">
   <path
   id="path7"
   d="M 21.52,24.1 C 16.02,20.67 11.14,16.48 6.66,11.81 5.84,10.96 5.06,10.08 4.18,9.13 c 0.61,-0.15 0.83,0.27 1.1,0.5 4.41,3.75 9.06,7.16 14.47,9.35 5.52,2.24 11.21,3.51 17.09,1.49 C 44.14,17.94 48.9,12.72 51.81,5.69 52.54,3.92 53.17,2.1 53.97,0 c 0.34,1.69 -0.03,3.02 -0.17,4.35 -0.69,6.5 -3.1,12.29 -7.33,17.28 -4.77,5.63 -10.73,7.58 -17.89,5.56 -0.32,-0.09 -0.62,-0.31 -1.03,-0.11 2.39,3.1 1.67,6.22 0.03,9.33 -1.19,2.26 -2.88,4.13 -4.82,5.89 0.57,0.26 1,-0.1 1.42,-0.23 2.01,-0.65 4.02,-1.24 6.16,-1.17 2.3,0.07 4.03,1.05 5.06,3.16 0.83,1.69 1.5,3.48 2.53,5.07 2.48,3.84 5.85,3.87 8.41,0.04 1.55,-2.34 2.12,-5.01 2.43,-7.75 0.07,-0.62 0.1,-1.25 0.37,-1.98 0.66,1.95 0.25,3.8 0.07,5.59 -0.49,4.61 -1.3,9.16 -2.48,13.64 -0.26,0.98 -0.63,1.92 -1.27,2.73 -1.09,1.36 -2.44,1.46 -3.69,0.23 -1.04,-1.02 -1.73,-2.28 -2.33,-3.58 -1.13,-2.45 -2.24,-4.9 -3.31,-7.36 -2.15,-4.9 -5.65,-6.57 -11.3,-5.86 -4.33,0.54 -8.35,2.25 -12.47,3.53 C 8.53,49.55 4.66,50.1 0.67,49.99 0.38,49.98 0.18,49.92 0,49.57 c 5.71,-0.52 10.61,-2.99 15.16,-6.24 3.04,-2.17 5.74,-4.7 7.77,-7.87 0.62,-0.96 1.12,-1.98 1.44,-3.08 0.8,-2.81 -0.19,-4.89 -2.88,-6.03 -2.1,-0.89 -4.34,-1 -6.57,-0.99 -2.24,0.01 -4.46,0.15 -6.67,0.54 -0.49,0.09 -1,0.08 -1.69,0.12 2.72,-1.26 9.15,-2.76 14.79,-1.72 0.16,0.12 0.33,0.19 0.52,0.04 -0.12,-0.08 -0.23,-0.16 -0.35,-0.24 z"
   class="fil0" />
   <path
   id="path9"
   d="m 53.04,37.25 c 4.6,-3.05 9.11,-6.03 13.77,-9.13 -1.7,-0.59 -3.35,-0.29 -4.92,-0.6 -0.33,-0.07 -0.67,-0.05 -1.01,-0.09 -5.91,-0.77 -8.35,-4.29 -6.73,-10.95 0.04,0.02 0.09,0.03 0.1,0.06 2.17,5.53 6.57,7.4 12.12,7.44 4.79,0.03 9.32,-1.21 13.82,-2.64 0.35,-0.11 0.7,-0.24 1.23,-0.41 -0.62,1.36 -1.54,2.26 -2.47,3.13 -2.84,2.67 -6.1,4.75 -9.5,6.63 -4.83,2.68 -9.8,5.02 -15.15,6.47 -0.36,0.1 -0.71,0.28 -1.26,0.09 z"
   class="fil1" />
   <path
   id="path11"
   d="m 66.7,44.17 c 0.04,-0.16 0.06,-0.29 0.06,-0.4 0,-0.33 -0.15,-0.53 -0.46,-0.62 -0.19,-0.06 -0.63,-0.09 -1.32,-0.09 h -3.04 l -0.51,2.43 h 3.04 c 0.78,0 1.29,-0.05 1.53,-0.16 0.33,-0.17 0.57,-0.56 0.7,-1.16 z m 15.22,2.39 c 0.02,-0.08 0.04,-0.18 0.04,-0.27 0,-0.4 -0.17,-0.73 -0.51,-1 -0.39,-0.31 -0.96,-0.47 -1.72,-0.47 -1.83,0 -2.86,0.58 -3.12,1.74 z m 4.11,2.28 h -9.96 c -0.03,0.1 -0.04,0.19 -0.04,0.27 0,0.41 0.18,0.75 0.53,1.02 0.42,0.34 1.07,0.5 1.94,0.5 1.11,0 1.93,-0.28 2.46,-0.86 h 4.77 c -0.07,0.3 -0.33,0.68 -0.78,1.14 -0.62,0.61 -1.41,1.11 -2.36,1.48 -1.23,0.5 -2.66,0.75 -4.29,0.75 -4.53,0 -6.8,-1.36 -6.8,-4.06 0,-0.42 0.06,-0.88 0.17,-1.36 0.33,-1.6 1.17,-2.85 2.5,-3.77 1.46,-1.01 3.41,-1.52 5.85,-1.52 4.15,0 6.23,1.5 6.23,4.49 0,0.58 -0.07,1.22 -0.22,1.92 z m -15.32,3.9 h -5.62 c -0.04,-0.05 -0.05,-0.17 -0.05,-0.35 0,-0.4 0.09,-1.01 0.27,-1.84 0.07,-0.33 0.11,-0.6 0.11,-0.82 0,-0.37 -0.12,-0.63 -0.37,-0.77 -0.24,-0.14 -0.66,-0.21 -1.26,-0.21 h -3.05 l -0.85,3.99 H 54.78 L 57.54,39.8 h 10.83 c 2.74,0 4.11,0.83 4.11,2.48 0,0.25 -0.03,0.51 -0.09,0.8 -0.22,1.02 -0.6,1.83 -1.14,2.43 -0.51,0.55 -1.05,0.83 -1.63,0.83 v 0.04 c 0.76,0 1.14,0.6 1.14,1.79 0,0.3 -0.07,0.84 -0.2,1.62 -0.13,0.78 -0.2,1.3 -0.2,1.57 0,0.65 0.12,1.11 0.35,1.38 z"
   class="fil2" />
   <path
   id="path13"
   d="m 96.52,47.86 c 0.05,-0.24 0.07,-0.46 0.07,-0.65 0,-1.07 -0.63,-1.61 -1.9,-1.61 -0.83,0 -1.48,0.14 -1.95,0.42 -0.61,0.35 -1,0.96 -1.18,1.83 -0.05,0.23 -0.07,0.44 -0.07,0.63 0,1.07 0.67,1.61 2.02,1.61 0.73,0 1.36,-0.17 1.89,-0.52 0.59,-0.39 0.96,-0.96 1.12,-1.71 z m 98.23,0.91 0.1,-0.56 c -0.27,0.08 -0.74,0.15 -1.41,0.22 -1.12,0.09 -1.71,0.15 -1.77,0.16 -0.69,0.08 -1.12,0.16 -1.27,0.22 -0.4,0.13 -0.64,0.39 -0.73,0.79 -0.02,0.1 -0.03,0.19 -0.03,0.27 0,0.58 0.52,0.87 1.55,0.87 0.83,0 1.54,-0.12 2.14,-0.38 0.81,-0.35 1.28,-0.88 1.42,-1.59 z m 4.09,3.97 h -4.64 c 0,-0.1 0.01,-0.34 0.04,-0.73 l 0.02,-0.23 h -0.06 c -1.16,0.9 -2.87,1.36 -5.13,1.36 -2.83,0 -4.31,-0.75 -4.44,-2.25 l -0.39,1.85 c -1.45,0.14 -2.51,0.21 -3.19,0.21 -1.26,0 -2.13,-0.12 -2.63,-0.38 -0.54,-0.27 -0.81,-0.79 -0.81,-1.54 0,-0.36 0.05,-0.8 0.16,-1.32 l 0.87,-4.06 h -2.08 l 0.6,-2.82 h 2.08 l 0.67,-3.15 h 4.53 l -0.67,3.15 h 2.44 l -0.59,2.82 h -2.45 l -0.78,3.7 c -0.02,0.08 -0.04,0.16 -0.04,0.23 0,0.4 0.49,0.58 1.47,0.55 0.25,-0.01 0.53,-0.03 0.86,-0.05 0.01,-0.05 0.02,-0.1 0.03,-0.15 0.28,-1.31 1.06,-2.22 2.35,-2.74 0.7,-0.27 1.65,-0.44 2.83,-0.5 l 4.37,-0.24 c 0.17,-0.01 0.32,-0.04 0.45,-0.09 0.31,-0.13 0.51,-0.36 0.58,-0.67 0.13,-0.65 -0.43,-0.98 -1.69,-0.98 -1.57,0 -2.48,0.38 -2.73,1.12 h -4.51 c 0.47,-1.22 1.19,-2.07 2.15,-2.55 1.14,-0.57 3,-0.85 5.58,-0.85 2.15,0 3.69,0.2 4.6,0.62 0.87,0.39 1.31,1.03 1.31,1.92 0,0.25 -0.04,0.54 -0.11,0.86 l -1.14,5.33 c -0.04,0.19 -0.06,0.38 -0.07,0.56 -0.02,0.32 0.01,0.55 0.09,0.71 0.01,0.02 0.03,0.13 0.07,0.31 z m -22.83,-3.08 c -0.49,2.32 -2.99,3.48 -7.48,3.48 -2.43,0 -4.12,-0.25 -5.09,-0.73 -0.9,-0.43 -1.36,-1.17 -1.36,-2.21 0,-0.17 0.01,-0.35 0.04,-0.54 h 5.34 v 0.21 c 0,0.51 0.49,0.77 1.45,0.77 1.14,0 1.75,-0.23 1.83,-0.67 0.03,-0.1 0.04,-0.19 0.04,-0.26 0,-0.22 -0.16,-0.35 -0.47,-0.41 -0.12,-0.04 -0.73,-0.11 -1.83,-0.22 -2.09,-0.22 -3.34,-0.4 -3.75,-0.53 -1.09,-0.32 -1.63,-0.98 -1.63,-1.95 0,-0.25 0.03,-0.51 0.09,-0.8 0.25,-1.17 0.97,-2.03 2.15,-2.56 1.19,-0.54 2.96,-0.81 5.31,-0.81 1.97,0 3.45,0.27 4.44,0.81 0.87,0.49 1.3,1.15 1.3,2 0,0.18 -0.01,0.36 -0.05,0.56 h -5.13 c 0.05,-0.21 0.01,-0.39 -0.11,-0.55 -0.16,-0.22 -0.49,-0.34 -0.97,-0.34 -1.34,0 -2.06,0.21 -2.14,0.63 -0.07,0.36 0.25,0.59 0.96,0.69 1.16,0.1 2.33,0.21 3.5,0.33 1.18,0.12 1.93,0.24 2.26,0.36 0.93,0.34 1.39,0.99 1.39,1.94 0,0.24 -0.03,0.51 -0.09,0.8 z m -12.84,-7.81 h -4.53 l 0.53,-2.5 h 4.52 z m -2.32,10.89 h -4.53 l 2.1,-9.91 h 4.53 z m -4.33,-4.19 c -0.21,0.47 -0.4,0.95 -0.6,1.43 -0.49,0.87 -1.23,1.57 -2.21,2.09 -1.34,0.71 -3.1,1.07 -5.29,1.07 -4.39,0 -6.59,-1.34 -6.59,-4.01 0,-0.41 0.05,-0.84 0.14,-1.3 0.39,-1.83 1.29,-3.18 2.7,-4.07 1.42,-0.89 3.43,-1.33 6.04,-1.33 2.13,0 3.72,0.34 4.76,1.01 0.75,0.5 1.2,1.16 1.36,2 0.02,0.46 0.05,0.91 0.07,1.37 h -4.76 c 0.02,-0.08 0.03,-0.17 0.03,-0.25 0,-0.39 -0.18,-0.7 -0.54,-0.94 -0.36,-0.24 -0.87,-0.37 -1.52,-0.37 -1.9,0 -3.03,0.86 -3.39,2.58 -0.05,0.2 -0.07,0.4 -0.07,0.58 0,1.19 0.8,1.79 2.41,1.79 0.79,0 1.46,-0.22 2.01,-0.67 0.38,-0.33 0.61,-0.65 0.69,-0.98 z m -14,-6.7 h -4.53 l 0.52,-2.5 h 4.53 z m -2.32,10.89 h -4.53 l 2.1,-9.91 h 4.53 z m -5.8,0 h -4.53 l 2.85,-13.39 h 4.53 z m -8.86,-4.86 c 0.05,-0.22 0.07,-0.42 0.07,-0.61 0,-1.12 -0.72,-1.67 -2.17,-1.67 -1.59,0 -2.55,0.76 -2.86,2.28 -0.05,0.23 -0.07,0.44 -0.07,0.64 0,1.05 0.66,1.57 1.97,1.57 1.73,0 2.75,-0.73 3.06,-2.21 z m 4.64,0 c -0.33,1.55 -1.04,2.79 -2.14,3.72 -1.22,1.02 -2.78,1.54 -4.69,1.54 -0.91,0 -1.67,-0.12 -2.28,-0.35 -0.45,-0.17 -0.81,-0.39 -1.09,-0.67 -0.11,-0.14 -0.22,-0.29 -0.32,-0.43 h -0.04 l -0.22,1.05 h -4.38 l 2.84,-13.39 h 4.53 l -0.99,4.73 h 0.03 c 0.04,-0.23 0.37,-0.52 1,-0.85 0.85,-0.45 1.91,-0.68 3.17,-0.68 1.52,0 2.7,0.37 3.53,1.11 0.8,0.7 1.2,1.67 1.2,2.9 0,0.42 -0.05,0.86 -0.15,1.32 z m -16.43,4.86 h -4.39 l 0.26,-1.16 h -0.04 c -0.06,0.24 -0.51,0.55 -1.36,0.92 -0.99,0.42 -1.96,0.64 -2.93,0.64 -1.29,0 -2.27,-0.26 -2.93,-0.78 -0.61,-0.47 -0.91,-1.14 -0.91,-2 0,-0.26 0.03,-0.55 0.09,-0.85 l 1.41,-6.68 h 4.53 l -1.14,5.41 c -0.04,0.16 -0.05,0.31 -0.05,0.46 0,0.78 0.51,1.17 1.54,1.17 0.7,0 1.3,-0.28 1.81,-0.85 0.34,-0.37 0.54,-0.72 0.6,-1.03 l 1.08,-5.16 h 4.53 z m -12.59,-4.88 c -0.32,1.47 -1.03,2.68 -2.14,3.65 -1.25,1.08 -2.79,1.63 -4.6,1.63 -0.94,0 -1.76,-0.15 -2.45,-0.44 -0.64,-0.25 -1.03,-0.57 -1.17,-0.96 h -0.06 l -0.96,4.53 H 85.25 L 88.1,42.83 h 4.38 l -0.25,1.18 h 0.05 c 1.05,-0.95 2.51,-1.42 4.39,-1.42 1.54,0 2.71,0.37 3.51,1.11 0.75,0.69 1.12,1.63 1.12,2.82 0,0.43 -0.04,0.87 -0.14,1.34 z"
   class="fil3" />
  </g>
 </g>
</svg>
